# xmcd
#
# Track frame offsets:
#	182
#	27267
#	47095
#	66202
#	112757
#	135567
#	155132
#	181120
#	202477
#
# Disc length: 3100 seconds
#
# Revision: 1
# Processed by: cddbd v1.5.2PL0 Copyright (c) Steve Scherf et al.
# Submitted via: audiograbber 1.83.01
#
DISCID=7d0c1a09
DTITLE=Roguie Ray - ROGUIE RAY - Born With The Blues
DYEAR=1994
DGENRE=Blues
TTITLE0=She's Gone
TTITLE1=Murdered By Love
TTITLE2=Wishin' For Love
TTITLE3=Old Fashioned Funny Feeling
TTITLE4=Jump Start My Heart
TTITLE5=The Bestest Thing You Ain't Never Had
TTITLE6=Born With The Blues
TTITLE7=What's A Man To Do
TTITLE8=Please Mr. King
EXTD=
EXTT0=
EXTT1=
EXTT2=
EXTT3=
EXTT4=
EXTT5=
EXTT6=
EXTT7=
EXTT8=
PLAYORDER=
